# xmcd
#
# Track frame offsets: 
#        150
#        12703
#        25919
#        36216
#        53621
#        64607
#        82956
#        103191
#        118576
#        132054
#        145896
#        164648
#        196412
#        211373
#        227551
#        241022
#        251056
#        263496
#        274016
#        287787
#        298274
#
# Disc length: 4176 seconds
#
# Revision: 0
# Processed by: cddbd v1.5.2PL0 Copyright (c) Steve Scherf et al.
# Submitted via: ExactAudioCopy v0.95b3
#
DISCID=34104e15
DTITLE=The Beatles  - Magical Mystery Tour - Hey Jude (millennium Rema
DTITLE=sters Us Reel Collection L 2400) FLAC
DYEAR=1900
DGENRE=
TTITLE0=Magical Mystery Tour
TTITLE1=The Fool on the Hill
TTITLE2=Flying
TTITLE3=Blue Jay Way
TTITLE4=Your Mother Should Know
TTITLE5=I Am the Walrus
TTITLE6=Hello Goodbye
TTITLE7=Strawberry Fields Forever
TTITLE8=Penny Lane
TTITLE9=Baby You're a Rich Man
TTITLE10=All You Need Is Love
TTITLE11=Can't Buy Me Love
TTITLE12=I Should Have Known Better
TTITLE13=Paperback Writer
TTITLE14=Rain
TTITLE15=Lady Madonna
TTITLE16=Revolution
TTITLE17=Hey Jude
TTITLE18=Old Brown Shoe
TTITLE19=Don't Let Me Down
TTITLE20=The Ballad of John and Yoko
EXTD=
EXTT0=
EXTT1=
EXTT2=
EXTT3=
EXTT4=
EXTT5=
EXTT6=
EXTT7=
EXTT8=
EXTT9=
EXTT10=
EXTT11=
EXTT12=
EXTT13=
EXTT14=
EXTT15=
EXTT16=
EXTT17=
EXTT18=
EXTT19=
EXTT20=
PLAYORDER=
